<?xml version="1.0" encoding="UTF-8"?>
<!DOCTYPE svg PUBLIC "-//W3C//DTD SVG 1.1//EN" "http://www.w3.org/Graphics/SVG/1.1/DTD/svg11.dtd">
<!-- Creator: CorelDRAW 2020 (64-Bit) -->
<svg xmlns="http://www.w3.org/2000/svg" xml:space="preserve" width="179.612mm" height="86.2453mm" version="1.1" style="shape-rendering:geometricPrecision; text-rendering:geometricPrecision; image-rendering:optimizeQuality; fill-rule:evenodd; clip-rule:evenodd"
viewBox="0 0 17945.97 8617.24"
 xmlns:xlink="http://www.w3.org/1999/xlink"
 xmlns:xodm="http://www.corel.com/coreldraw/odm/2003">
 <defs>
  <style type="text/css">
   <![CDATA[
    .fil3 {fill:#E23225}
    .fil4 {fill:#F2CD03}
    .fil5 {fill:white;fill-rule:nonzero}
    .fil2 {fill:url(#id0)}
    .fil0 {fill:url(#id1)}
    .fil1 {fill:url(#id2)}
    .fil6 {fill:url(#id3)}
   ]]>
  </style>
  <linearGradient id="id0" gradientUnits="userSpaceOnUse" x1="-0" y1="4291.5" x2="3823.12" y2="4291.5">
   <stop offset="0" style="stop-opacity:1; stop-color:#E23225"/>
   <stop offset="1" style="stop-opacity:1; stop-color:#FFBB00"/>
  </linearGradient>
  <linearGradient id="id1" gradientUnits="userSpaceOnUse" xlink:href="#id0" x1="1568.15" y1="209.62" x2="3628.06" y2="8407.63">
  </linearGradient>
  <linearGradient id="id2" gradientUnits="userSpaceOnUse" x1="341.22" y1="4308.64" x2="3985.59" y2="4308.64">
   <stop offset="0" style="stop-opacity:1; stop-color:#F2CD03"/>
   <stop offset="1" style="stop-opacity:1; stop-color:#E8891B"/>
  </linearGradient>
  <linearGradient id="id3" gradientUnits="userSpaceOnUse" x1="8426.09" y1="3913.71" x2="8304.76" y2="2092.65">
   <stop offset="0" style="stop-opacity:1; stop-color:#E23225"/>
   <stop offset="0.176471" style="stop-opacity:1; stop-color:#E23824"/>
   <stop offset="0.258824" style="stop-opacity:1; stop-color:#E33F22"/>
   <stop offset="1" style="stop-opacity:1; stop-color:#F2CD03"/>
  </linearGradient>
 </defs>
 <g id="Capa_x0020_1">
  <metadata id="CorelCorpID_0Corel-Layer"/>
  <g id="_39447286208">
   <g>
    <path class="fil0" d="M1435.09 0c0,0 979.38,442.09 700.53,1659.52 -278.85,1217.42 -2135.61,2455.24 -2135.61,4101.16 0,1645.93 1918.01,2407.68 3985.59,2856.56 0,0 -1700.34,-394.47 -911.39,-1713.92 788.95,-1319.45 2122.02,-1577.91 2122.02,-3060.58 0,-1482.69 -1237.83,-2013.19 -1237.83,-2013.19 0,0 1169.83,1904.36 -734.54,3019.78 0,0 -911.37,-13.6 -217.65,-1292.25 693.73,-1278.65 1197,-3040.21 -1571.11,-3557.08z"/>
    <path class="fil1" d="M3985.59 8617.24c0,0 -2972.15,-571.36 -3550.27,-2380.51 -578.11,-1809.14 1686.73,-3312.26 1938.38,-4257.64 251.65,-945.37 -326.54,-1693.36 -938.62,-1979.1 0,0 1210.66,445.84 1074.65,1822.68 -108.84,1101.81 -2117.07,2197.66 -2021.85,3925.17 -30.61,204.04 56.26,2059.98 3497.7,2869.39z"/>
    <path class="fil2" d="M435.32 6236.74c-578.11,-1809.14 1686.73,-3312.26 1938.38,-4257.64 251.14,-943.44 -324.19,-1690.31 -934.87,-1977.34 65.57,31.29 965.53,484.43 696.78,1657.76 -278.85,1217.42 -2135.61,2455.24 -2135.61,4101.16 0,1602.72 1818.63,2367.09 3823.12,2820.57 -628.67,-149.9 -2891.25,-790.65 -3387.79,-2344.52z"/>
    <path class="fil3" d="M2076.24 4483.61c0,0 408.12,-1203.81 1186.87,-1591.49 0,0 -493.1,-3.39 -659.73,146.24 0,0 567.93,-982.86 2645.6,-1979.18 0,0 -3128.59,1183.43 -4121.57,3060.58 0,0 418.3,-306.07 652.95,-343.48 0,0 -771.96,1023.6 -744.75,2023.4 0,0 187.04,-292.46 452.29,-486.3 0,0 -125.8,1105.21 554.33,2309.05 0,0 -370.66,-2237.63 629.14,-3489.08 0,0 -411.46,163.22 -595.12,350.26z"/>
    <path class="fil4" d="M3958.38 1829.55c0,0 1453.7,2069.43 -734.54,3019.78 0,0 2319.37,-656.25 734.54,-3019.78z"/>
   </g>
   <path class="fil5" d="M12009.37 3475.47l1129.78 0 -63.01 275.78c-17.06,74.14 -41.51,125.28 -73.4,153.46 -31.87,28.17 -99.34,42.25 -202.38,42.25l-644.96 0c-163.83,0 -281.7,27.43 -352.87,82.29 -71.91,55.6 -137.89,165.32 -198.68,330.63 -94.15,258.73 -169.77,515.97 -226.11,771.74 -56.34,255.75 -84.51,455.18 -84.51,598.25 0,120.1 39.29,209.05 118.61,266.13 78.58,57.08 200.91,86 365.48,86 141.6,0 240.2,-14.83 295.05,-43.74 54.86,-28.91 93.41,-91.18 114.91,-188.29l195.7 -835.48 -316.54 0c-37.81,0 -67.46,-8.16 -88.23,-25.21 -20.75,-16.31 -31.87,-40.78 -31.87,-72.65 0,-8.9 1.48,-20.02 3.71,-34.1 2.22,-14.09 5.19,-29.65 9.63,-46.71l67.46 -257.24 803.61 0c66.72,0 120.84,14.83 161.61,44.48 41.51,29.65 62.27,68.2 62.27,114.9 0,43 -6.67,94.9 -19.27,154.2 -1.48,5.93 -2.23,9.64 -2.23,11.12l-258.72 1137.21c-27.43,117.87 -60.79,210.54 -100.09,278.74 -39.29,68.2 -90.43,122.32 -154.19,163.09 -62.28,40.78 -163.09,69.68 -303.95,86 -140.11,17.05 -358.81,25.2 -655.34,25.2 -332.86,0 -576.02,-58.56 -730.21,-175.69 -154.2,-117.87 -231.3,-303.95 -231.3,-558.97 0,-71.91 11.12,-171.98 32.62,-299.5 21.5,-127.51 55.6,-292.83 102.3,-495.21 32.62,-146.79 70.43,-289.86 111.21,-430.72 41.51,-140.11 87.48,-277.27 137.88,-410.7 72.65,-196.45 135.67,-333.6 189.04,-409.21 53.37,-76.36 119.36,-138.63 197.19,-188.3 82.29,-50.41 176.44,-88.22 280.97,-112.68 104.52,-24.46 224.62,-37.07 358.81,-37.07zm2692.52 632.37l-658.3 1160.19 707.97 0 -49.67 -1160.19zm-408.47 -632.37l768.76 0c80.81,0 138.63,16.32 172.73,49.67 34.1,33.36 54.11,92.67 59.31,178.67l146.04 2524.25c4.46,67.46 21.5,123.06 51.9,164.57 30.39,42.25 72.65,68.94 126.02,80.81l-13.34 84.51 -542.66 0c-85.25,0 -149,-22.98 -191.26,-68.2 -42.25,-45.96 -65.98,-118.61 -71.91,-218.7l-30.39 -576.01 -920.74 0 -310.62 600.48c-7.41,12.6 -12.61,25.2 -16.31,37.81 -3.71,11.86 -5.93,25.2 -7.41,37.81 0,33.35 8.15,57.82 24.46,72.65 17.06,15.57 45.22,25.2 86,29.65l-10.38 84.51 -602.7 0c-40.78,0 -71.91,-9.64 -94.15,-28.17 -22.98,-19.28 -34.1,-45.22 -34.1,-78.58 0,-24.47 6.66,-54.12 19.27,-88.96 13.34,-34.84 34.84,-77.83 65.97,-130.47l1368.5 -2441.22c17.79,-31.88 30.39,-58.57 38.55,-80.81 7.41,-21.49 11.87,-40.03 11.87,-56.34 0,-30.39 -9.64,-53.37 -28.18,-68.94 -19.27,-16.31 -46.7,-24.46 -83.03,-24.46l17.79 -84.52zm2739.97 0l912.58 0 -67.46 317.29c-13.34,61.54 -37.06,106.76 -71.91,136.4 -34.84,29.65 -82.28,44.48 -141.59,44.48l-512.27 0c-111.94,0 -200.9,36.33 -267.61,108.24 -66.72,72.65 -100.09,168.28 -100.09,286.9 0,45.22 15.57,84.51 46.7,119.35 31.14,34.85 85.26,71.17 162.35,108.98l462.6 220.92c126.02,59.3 217.95,136.4 276.52,231.29 58.56,94.89 88.22,214.24 88.22,357.32 0,366.22 -90.44,650.15 -271.33,850.31 -181.63,200.91 -438.12,300.99 -771.73,300.99l-648.66 0c-166.06,0 -277.27,-12.6 -332.86,-37.81 -55.6,-25.95 -83.78,-71.17 -83.78,-136.4 0,-12.6 2.23,-34.1 6.67,-65.23 1.49,-6.67 2.23,-11.86 2.23,-14.83l93.4 -399.58 77.84 0c5.93,65.23 25.21,111.2 57.08,137.88 32.62,26.7 89.7,40.04 170.51,40.04l521.16 0c163.84,0 296.54,-51.15 398.84,-152.71 102.3,-102.3 153.45,-233.52 153.45,-394.4 0,-60.79 -16.31,-111.94 -48.18,-152.71 -31.88,-41.51 -83.78,-77.84 -156.43,-109.72l-534.5 -235c-103.79,-47.45 -179.41,-111.21 -226.85,-191.27 -46.71,-79.32 -70.43,-185.33 -70.43,-317.29 0,-326.92 77.84,-584.17 233.52,-771.73 155.68,-187.56 369.93,-281.71 642,-281.71z"/>
   <path class="fil5" d="M5042.03 3475.47l1129.78 0 -63.01 275.78c-17.06,74.14 -41.51,125.28 -73.4,153.46 -31.87,28.17 -99.34,42.25 -202.38,42.25l-644.96 0c-163.83,0 -281.7,27.43 -352.87,82.29 -71.91,55.6 -137.89,165.32 -198.68,330.63 -94.15,258.73 -169.77,515.97 -226.11,771.74 -56.34,255.75 -84.51,455.18 -84.51,598.25 0,120.1 39.29,209.05 118.61,266.13 78.58,57.08 200.91,86 365.48,86 141.6,0 240.2,-14.83 295.05,-43.74 54.86,-28.91 93.41,-91.18 114.91,-188.29l195.7 -835.48 -316.54 0c-37.81,0 -67.46,-8.16 -88.23,-25.21 -20.75,-16.31 -31.87,-40.78 -31.87,-72.65 0,-8.9 1.48,-20.02 3.71,-34.1 2.22,-14.09 5.19,-29.65 9.63,-46.71l67.46 -257.24 803.61 0c66.72,0 120.84,14.83 161.61,44.48 41.51,29.65 62.27,68.2 62.27,114.9 0,43 -6.67,94.9 -19.27,154.2 -1.48,5.93 -2.23,9.64 -2.23,11.12l-258.72 1137.21c-27.43,117.87 -60.79,210.54 -100.09,278.74 -39.29,68.2 -90.43,122.32 -154.19,163.09 -62.28,40.78 -163.09,69.68 -303.95,86 -140.11,17.05 -358.81,25.2 -655.34,25.2 -332.86,0 -576.02,-58.56 -730.21,-175.69 -154.2,-117.87 -231.3,-303.95 -231.3,-558.97 0,-71.91 11.12,-171.98 32.62,-299.5 21.5,-127.51 55.6,-292.83 102.3,-495.21 32.62,-146.79 70.43,-289.86 111.21,-430.72 41.51,-140.11 87.48,-277.27 137.88,-410.7 72.65,-196.45 135.67,-333.6 189.04,-409.21 53.37,-76.36 119.36,-138.63 197.19,-188.3 82.29,-50.41 176.44,-88.22 280.97,-112.68 104.52,-24.46 224.62,-37.07 358.81,-37.07zm1253.6 2522.03l475.19 0c51.9,0 90.44,8.89 114.91,25.95 24.46,17.78 37.07,44.47 37.07,80.8 0,8.15 -1.49,20.75 -4.46,36.33 -2.96,16.31 -6.66,32.61 -10.37,50.41l-87.48 366.96 -435.91 0c-62.27,0 -108.98,-10.38 -140.11,-30.39 -31.13,-20.01 -46.7,-49.67 -46.7,-88.96 0,-11.86 0.74,-20.75 1.48,-27.43 0.74,-6.67 1.49,-12.6 2.97,-18.53l93.41 -395.13zm1541.98 -1903.75l635.32 0c40.78,0 71.91,12.6 93.41,37.07 21.5,24.46 32.61,60.05 32.61,106.01 0,16.31 -1.48,34.1 -5.19,54.11 -3.71,20.76 -8.89,40.78 -14.09,60.79l-458.14 1900.04c-4.45,20.75 -7.41,38.55 -9.63,54.11 -2.23,16.32 -2.97,29.65 -2.97,39.3 0,40.77 13.34,71.91 40.03,94.89 26.69,22.24 65.24,33.36 115.65,33.36l-25.95 84.51 -618.27 0c-47.45,0 -86,-13.35 -115.65,-40.04 -29.65,-26.69 -44.48,-61.53 -44.48,-103.04 0,-7.41 2.23,-21.5 6.67,-43.73 1.48,-6.67 2.23,-12.61 2.23,-17.06l470 -1943.78c5.92,-21.5 9.63,-40.04 11.86,-54.86 2.23,-15.57 3.71,-28.17 3.71,-38.55 0,-34.1 -9.64,-61.53 -29.65,-82.29 -19.27,-20.01 -55.6,-39.29 -109.72,-56.34l22.24 -84.51zm899.24 1903.75l475.19 0c51.9,0 90.44,8.89 114.91,25.95 24.46,17.78 37.07,44.47 37.07,80.8 0,8.15 -1.49,20.75 -4.46,36.33 -2.96,16.31 -6.66,32.61 -10.37,50.41l-87.48 366.96 -435.91 0c-62.27,0 -108.98,-10.38 -140.11,-30.39 -31.13,-20.01 -46.7,-49.67 -46.7,-88.96 0,-11.86 0.74,-20.75 1.48,-27.43 0.74,-6.67 1.49,-12.6 2.97,-18.53l93.41 -395.13z"/>
   <path class="fil6" d="M8192.47 2633.96c0,0 -462.28,492.92 -470.06,791.31 -7.77,298.39 151.77,436.26 267.92,496.69 0,0 -167.96,-211.52 33.82,-445.69 0,0 10,92.53 136.75,141.64 0,0 -152.79,-492.91 242.41,-723.32 0,0 -101.52,171.86 38.98,362.6 140.5,190.74 228.63,268.17 206.89,426.81 -21.73,158.64 -124.15,239.85 -124.15,239.85 0,0 259.75,-120.87 363.16,-407.93 103.42,-287.06 -74.49,-443.8 -97.49,-602.44 -22.99,-158.65 50.08,-309.73 50.08,-309.73 0,0 -154.47,47.21 -250.35,152.97 0,0 240.29,-441.93 -223.53,-674.22 0,0 100.37,232.3 -174.44,551.45z"/>
  </g>
 </g>
</svg>
